<svg id="Layer_3" enable-background="new 0 0 64 64" height="512" viewBox="0 0 64 64" width="512" xmlns="http://www.w3.org/2000/svg"><g><path d="m39.879 16.105c-3.617-6.832-10.714-11.105-18.444-11.105-6.569 0-12.755 3.093-16.696 8.348-1.778 2.37-2.739 5.254-2.739 8.217v1.435c0 6.627 5.373 12 12 12h37.5c3.59 0 6.5-2.91 6.5-6.5 0-3.59-2.91-6.5-6.5-6.5h-1.83c-4.103 0-7.871-2.268-9.791-5.895z" fill="#f5cf88"/><path d="m35.647 17.778c2.678 5.058 7.933 8.222 13.656 8.222h2.197c1.381 0 2.5 1.119 2.5 2.5 0 1.381-1.119 2.5-2.5 2.5h-37.5c-4.418 0-8-3.582-8-8v-1.666c0-2.161.72-4.26 2.047-5.965 3.125-4.019 7.93-6.369 13.021-6.369 6.11 0 11.72 3.378 14.579 8.778z" fill="#e4725f"/><path d="m20 20 1.391 1.159c1.586 1.322 2.809 2.99 3.596 4.847l.013-.006 1.446-.542c4.334-1.625 8.925-2.458 13.554-2.458l.055-.073c-1.801-1.345-3.318-3.09-4.408-5.149-1.349-2.548-3.31-4.645-5.646-6.15l-.001.372-2.718 3.625c-1.772 2.362-4.408 3.891-7.295 4.278z" fill="#af4a47"/><path d="m26 31c0-3.802-1.689-7.407-4.609-9.841l-1.391-1.159-.189-.075c-.423.05-.85.075-1.28.075-2.901 0-5.683 1.152-7.735 3.204l-3.796 3.796.053-.03c1.379 2.408 3.973 4.03 6.947 4.03z" fill="#e47c6e"/><path d="m7.053 26.97c-.67-1.17-1.053-2.525-1.053-3.97v-1.666c0-2.161.72-4.26 2.047-5.965 3.125-4.019 7.93-6.369 13.021-6.369 3.302 0 6.457.986 9.112 2.745l-.001.001-2.897 3.879c-2.066 2.754-5.308 4.375-8.751 4.375-2.901 0-5.683 1.152-7.735 3.204l-3.796 3.796z" fill="#c66b60"/><path d="m24.121 40.105c3.617-6.832 10.714-11.105 18.444-11.105 6.569 0 12.754 3.093 16.696 8.348 1.778 2.37 2.739 5.254 2.739 8.217v1.435c0 6.627-5.373 12-12 12h-37.5c-3.59 0-6.5-2.91-6.5-6.5 0-3.59 2.91-6.5 6.5-6.5h1.83c4.103 0 7.871-2.268 9.791-5.895z" fill="#fadfb2"/><path d="m28.353 41.778c-2.678 5.058-7.933 8.222-13.656 8.222h-2.197c-1.381 0-2.5 1.119-2.5 2.5 0 1.381 1.119 2.5 2.5 2.5h37.5c4.418 0 8-3.582 8-8v-1.666c0-2.161-.72-4.26-2.047-5.965-3.125-4.019-7.93-6.369-13.021-6.369-6.11 0-11.72 3.378-14.579 8.778z" fill="#e4725f"/><path d="m44 44-1.391 1.159c-1.586 1.322-2.809 2.99-3.596 4.847l-.013-.006-1.446-.542c-4.334-1.625-8.925-2.458-13.554-2.458l-.055-.073c1.801-1.345 3.318-3.09 4.408-5.149 1.349-2.548 3.31-4.645 5.646-6.15l.001.372 2.718 3.625c1.772 2.362 4.408 3.891 7.295 4.278z" fill="#af4a47"/><path d="m38 55c0-3.802 1.689-7.407 4.609-9.841l1.391-1.159.189-.075c.422.05.849.075 1.28.075 2.901 0 5.683 1.152 7.735 3.204l3.796 3.796-.053-.03c-1.379 2.408-3.973 4.03-6.947 4.03z" fill="#e47c6e"/><path d="m56.947 50.97c.67-1.17 1.053-2.525 1.053-3.97v-1.666c0-2.161-.72-4.26-2.047-5.965-3.125-4.019-7.93-6.369-13.021-6.369-3.302 0-6.457.986-9.112 2.745l.001.001 2.897 3.879c2.066 2.754 5.308 4.375 8.751 4.375 2.901 0 5.683 1.152 7.735 3.204l3.796 3.796z" fill="#c66b60"/><g><path d="m60.061 36.747c-.891-1.187-1.901-2.264-2.999-3.233 1.237-1.368 1.938-3.138 1.938-5.015 0-4.136-3.365-7.499-7.5-7.499h-1.83c-3.743 0-7.156-2.056-8.908-5.364-3.8-7.178-11.206-11.636-19.327-11.636-.002 0-.002 0-.004 0-6.846 0-13.385 3.27-17.494 8.747-1.894 2.526-2.937 5.658-2.937 8.817v1.435c-.001 3.473 1.351 6.737 3.807 9.192 2.455 2.456 5.719 3.809 9.193 3.809h11.655c-.913 1.116-1.727 2.329-2.419 3.636h-.001c-1.75 3.308-5.163 5.363-8.907 5.363h-1.83c-4.135 0-7.499 3.364-7.499 7.501 0 4.135 3.364 7.499 7.499 7.499h37.502c7.168 0 13-5.832 13-13v-1.435c0-3.158-1.044-6.29-2.939-8.817zm-53.84-5.97c-2.077-2.077-3.222-4.839-3.221-7.777v-1.436c0-2.729.901-5.435 2.538-7.617 3.732-4.976 9.673-7.947 15.894-7.947h.003c7.379 0 14.107 4.051 17.56 10.572 2.099 3.964 6.189 6.428 10.675 6.428h1.83c3.032 0 5.5 2.467 5.5 5.5 0 1.411-.539 2.741-1.491 3.755-.554-.406-1.129-.78-1.718-1.132.734-.642 1.208-1.575 1.208-2.625 0-1.929-1.569-3.498-3.5-3.498h-2.197c-5.367 0-10.261-2.947-12.771-7.691-3.04-5.742-8.965-9.31-15.464-9.31-5.438.001-10.472 2.463-13.811 6.755-1.455 1.871-2.256 4.207-2.256 6.578v1.668c0 4.962 4.037 9 9 9h15.947c-.855.604-1.665 1.275-2.428 2h-13.519c-2.938 0-5.701-1.145-7.779-3.223zm27.211-.777h-6.488c-.084-1.171-.3-2.318-.668-3.412l.52-.195c4.183-1.568 8.568-2.369 13.034-2.389 2.721 1.916 6.009 2.996 9.472 2.996h2.197c.827 0 1.5.673 1.5 1.5 0 .783-.606 1.421-1.373 1.487-2.818-1.286-5.906-1.989-9.063-1.989-3.217 0-6.318.71-9.131 2.002zm-26.432-7v-1.668c0-1.929.651-3.829 1.835-5.351 2.957-3.801 7.415-5.982 12.231-5.982 2.745 0 5.37.725 7.661 2.029l-2.247 2.996c-1.867 2.489-4.839 3.976-7.951 3.976-3.188 0-6.187 1.241-8.441 3.496l-2.722 2.722c-.234-.698-.366-1.442-.366-2.218zm18.488 1.748c-.829-1.63-1.972-3.103-3.41-4.313 2.366-.742 4.489-2.193 6.003-4.211l2.321-3.094c1.776 1.342 3.277 3.069 4.36 5.115.759 1.433 1.714 2.717 2.814 3.837-3.927.239-7.78 1.05-11.483 2.438zm-13.985-.838c1.876-1.877 4.372-2.911 7.026-2.911.347 0 .691-.031 1.034-.061l1.186.988c2.442 2.036 3.93 4.938 4.194 8.074h-10.943c-2.335 0-4.4-1.153-5.672-2.915zm49.497 23.089c0 6.064-4.936 11-11 11h-37.502c-3.031 0-5.499-2.468-5.499-5.5 0-3.033 2.468-5.5 5.499-5.5h1.83c4.486 0 8.577-2.463 10.676-6.427h-.001c3.453-6.522 10.183-10.574 17.561-10.574 6.222 0 12.164 2.972 15.896 7.949 1.638 2.184 2.54 4.889 2.54 7.617z"/><path d="m42.932 31.999c-6.499 0-12.424 3.567-15.464 9.31-2.51 4.743-7.404 7.689-12.771 7.689h-2.197c-1.931 0-3.5 1.571-3.5 3.502 0 1.929 1.569 3.498 3.5 3.498h37.499c4.964 0 9.002-4.037 9.002-9v-1.666c0-2.37-.802-4.707-2.258-6.578-3.341-4.293-8.375-6.755-13.811-6.755zm-13.696 10.246c1.083-2.046 2.584-3.774 4.361-5.116l2.32 3.094c1.514 2.018 3.638 3.468 6.003 4.21-1.439 1.21-2.582 2.683-3.411 4.314l-.605-.227c-3.701-1.388-7.554-2.199-11.481-2.438 1.1-1.12 2.055-2.404 2.813-3.837zm-18.237 10.253c0-.826.673-1.5 1.5-1.5h2.197c3.463 0 6.751-1.079 9.472-2.995 4.468.02 8.852.822 13.033 2.39l.52.195c-.368 1.093-.583 2.24-.667 3.411h-24.555c-.827-.001-1.5-.674-1.5-1.501zm38.999 1.5h-10.943c.264-3.135 1.751-6.037 4.193-8.072l1.187-.989c.343.03.686.061 1.033.061 2.653 0 5.149 1.034 7.027 2.912l3.175 3.174c-1.272 1.762-3.338 2.914-5.672 2.914zm7.002-7c0 .777-.132 1.521-.367 2.22l-2.723-2.723c-2.256-2.255-5.253-3.496-8.441-3.496-3.112 0-6.085-1.486-7.951-3.976l-2.246-2.996c2.291-1.303 4.916-2.028 7.661-2.028 4.815 0 9.273 2.181 12.231 5.982 1.184 1.523 1.836 3.423 1.836 5.351z"/></g></g></svg>